<!DOCTYPE svg PUBLIC "-//W3C//DTD SVG 1.1//EN" "http://www.w3.org/Graphics/SVG/1.1/DTD/svg11.dtd">
<svg width="30px" height="30px" viewBox="-8.88 -8.88 41.76 41.76" fill="none" xmlns="http://www.w3.org/2000/svg" stroke="#000000" transform="matrix(1, 0, 0, 1, 0, 0)rotate(0)">
<g id="SVGRepo_bgCarrier" stroke-width="0" transform="translate(0,0), scale(1)">
    <rect x="-8.88" y="-8.88" width="41.76" height="41.76" rx="20.88" fill="#d7e2f5" strokewidth="0"/>
</g>
<g id="SVGRepo_tracerCarrier" stroke-linecap="round" stroke-linejoin="round" stroke="#CCCCCC" stroke-width="0.4800000000000001"/>
<g id="SVGRepo_iconCarrier"> <path d="M14 8.5C14 9.88071 12.8807 11 11.5 11C10.1193 11 9 9.88071 9 8.5C9 7.11929 10.1193 6 11.5 6C12.8807 6 14 7.11929 14 8.5Z" stroke="#414edc" stroke-width="1.44"/> <path d="M18.5 20C17 20.5 6.00001 21 5.00001 20C4.00001 19 8.41015 14.5 12 14.5C15.5899 14.5 20 19.5 18.5 20Z" stroke="#414edc" stroke-width="1.44" stroke-linecap="round" stroke-linejoin="round"/> </g>
</svg>